<svg width="28" height="28" viewBox="0 0 28 28" fill="none" xmlns="http://www.w3.org/2000/svg">
<g id="vuesax/linear/category-2">
<g id="category-2">
<path id="Vector" d="M19.8333 11.6667H22.1667C24.5 11.6667 25.6667 10.5 25.6667 8.16666V5.83333C25.6667 3.49999 24.5 2.33333 22.1667 2.33333H19.8333C17.5 2.33333 16.3333 3.49999 16.3333 5.83333V8.16666C16.3333 10.5 17.5 11.6667 19.8333 11.6667Z" stroke="#9099AC" stroke-width="1.5" stroke-miterlimit="10" stroke-linecap="round" stroke-linejoin="round"/>
<path id="Vector_2" d="M5.83334 25.6667H8.16667C10.5 25.6667 11.6667 24.5 11.6667 22.1667V19.8333C11.6667 17.5 10.5 16.3333 8.16667 16.3333H5.83334C3.5 16.3333 2.33334 17.5 2.33334 19.8333V22.1667C2.33334 24.5 3.5 25.6667 5.83334 25.6667Z" stroke="#9099AC" stroke-width="1.5" stroke-miterlimit="10" stroke-linecap="round" stroke-linejoin="round"/>
<path id="Vector_3" d="M7 11.6667C9.57733 11.6667 11.6667 9.57732 11.6667 7C11.6667 4.42267 9.57733 2.33333 7 2.33333C4.42267 2.33333 2.33334 4.42267 2.33334 7C2.33334 9.57732 4.42267 11.6667 7 11.6667Z" stroke="#9099AC" stroke-width="1.5" stroke-miterlimit="10" stroke-linecap="round" stroke-linejoin="round"/>
<path id="Vector_4" d="M21 25.6667C23.5773 25.6667 25.6667 23.5773 25.6667 21C25.6667 18.4227 23.5773 16.3333 21 16.3333C18.4227 16.3333 16.3333 18.4227 16.3333 21C16.3333 23.5773 18.4227 25.6667 21 25.6667Z" stroke="#9099AC" stroke-width="1.5" stroke-miterlimit="10" stroke-linecap="round" stroke-linejoin="round"/>
</g>
</g>
</svg>
