<svg width="28" height="28" viewBox="0 0 28 28" fill="none" xmlns="http://www.w3.org/2000/svg">
<path d="M19.8333 26.5417H8.16667C3.02167 26.5417 1.45834 24.9783 1.45834 19.8333V8.16668C1.45834 3.02168 3.02167 1.45834 8.16667 1.45834H9.91667C11.9583 1.45834 12.6 2.12334 13.4167 3.20834L15.1667 5.54168C15.5517 6.05501 15.61 6.12501 16.3333 6.12501H19.8333C24.9783 6.12501 26.5417 7.68834 26.5417 12.8333V19.8333C26.5417 24.9783 24.9783 26.5417 19.8333 26.5417ZM8.16667 3.20834C3.99 3.20834 3.20834 4.00168 3.20834 8.16668V19.8333C3.20834 23.9983 3.99 24.7917 8.16667 24.7917H19.8333C24.01 24.7917 24.7917 23.9983 24.7917 19.8333V12.8333C24.7917 8.66834 24.01 7.87501 19.8333 7.87501H16.3333C14.84 7.87501 14.35 7.36168 13.7667 6.59168L12.0167 4.25834C11.41 3.45334 11.2233 3.20834 9.91667 3.20834H8.16667Z" fill="#C4CBDA"/>
<path d="M23.3333 8.31834C22.855 8.31834 22.4583 7.92168 22.4583 7.44334V5.83334C22.4583 3.99001 21.6767 3.20834 19.8333 3.20834H9.33333C8.85499 3.20834 8.45833 2.81168 8.45833 2.33334C8.45833 1.85501 8.85499 1.45834 9.33333 1.45834H19.8333C22.6567 1.45834 24.2083 3.01001 24.2083 5.83334V7.44334C24.2083 7.92168 23.8117 8.31834 23.3333 8.31834Z" fill="#C4CBDA"/>
</svg>
